# xmcd
#
# Track frame offsets: 
#        150
#        17725
#        34722
#        52960
#        71475
#        94265
#        114872
#        141352
#        160180
#        177497
#        193207
#        213527
#
# Disc length: 2991 seconds
#
# Revision: 0
# Processed by: cddbd v1.5.2PL0 Copyright (c) Steve Scherf et al.
# Submitted via: ExactAudioCopy v0.99pb5
#
DISCID=a90bad0c
DTITLE=Downchild - Lucky 13
DYEAR=1997
DGENRE=Blues
TTITLE0=Dew Drop Inn
TTITLE1=Shoot That Moon
TTITLE2=All Over
TTITLE3=Last Chance To Dance
TTITLE4=When The Morning Comes
TTITLE5=Take Me Back Annie
TTITLE6=Soaring
TTITLE7=I Know You're Lyin'
TTITLE8=My First Letter
TTITLE9=Changed My Ways
TTITLE10=Screamin'
TTITLE11=Lucky 13
EXTD=
EXTT0=
EXTT1=
EXTT2=
EXTT3=
EXTT4=
EXTT5=
EXTT6=
EXTT7=
EXTT8=
EXTT9=
EXTT10=
EXTT11=
PLAYORDER=
